# xmcd CD database file generated by Grip 3.2.0
# 
# Track frame offsets:
#       150
#       10625
#       21393
#       34043
#       46014
#       54904
#       66762
#       76304
#       88179
#       98726
#       106458
#       120411
#       132876
#       143203
#       153288
#       164611
#       173743
#       185337
#       196059
#       208599
# 
# Disc length: 2906 seconds
# 
# Revision: 2
# Processed by: cddbd v1.5.1PL2 Copyright (c) Steve Scherf et al.
# Submitted via: Grip 3.2.0
# 
DISCID=fc0b5814
DTITLE=Various Artist - Rhythm and Blues goes Rock 'n' Roll - Vol 2 - Disc 9
DYEAR=2002
DGENRE=Other
TTITLE0=johnny wright - look at that chick
TTITLE1=jimmy coe - run jody run
TTITLE2=jumpin' jay - come on home
TTITLE3=little luther - twirl
TTITLE4=jimmy breedlove - killer diller
TTITLE5=washboard sam - never never
TTITLE6=dean and jean - please don't tell me now
TTITLE7=tommy brown - atlanta boogie
TTITLE8=frankie lee sims - i warned you baby
TTITLE9=honeyboy bryant - funny looking thing
TTITLE10=willie johnson - if i had my way
TTITLE11=harold burrage - betty jean
TTITLE12=lightnin' hopkins - bad boogie
TTITLE13=big maybelle - rockhouse
TTITLE14=model t slim - shake your boogie
TTITLE15=johnny copeland - rock and roll lilly
TTITLE16=bukka white - bukka's jitterbug swing
TTITLE17=lovers - security
TTITLE18=valentines - that's it man
TTITLE19=billy garner - little schoolgirl
EXTD=YEAR: 2002
EXTT0=
EXTT1=
EXTT2=
EXTT3=
EXTT4=
EXTT5=
EXTT6=
EXTT7=
EXTT8=
EXTT9=
EXTT10=
EXTT11=
EXTT12=
EXTT13=
EXTT14=
EXTT15=
EXTT16=
EXTT17=
EXTT18=
EXTT19=
PLAYORDER=
